<!DOCTYPE svg PUBLIC "-//W3C//DTD SVG 1.1//EN" "http://www.w3.org/Graphics/SVG/1.1/DTD/svg11.dtd">
<!-- Uploaded to: SVG Repo, www.svgrepo.com, Transformed by: SVG Repo Mixer Tools -->
<svg fill="#006168" height="800px" width="800px" version="1.1" id="Capa_1" xmlns="http://www.w3.org/2000/svg" xmlns:xlink="http://www.w3.org/1999/xlink" viewBox="0 0 459.936 459.936" xml:space="preserve">
<g id="SVGRepo_bgCarrier" stroke-width="0"/>
<g id="SVGRepo_tracerCarrier" stroke-linecap="round" stroke-linejoin="round"/>
<g id="SVGRepo_iconCarrier"> <path d="M386.514,107.453h-37.47l-30.829-30.829c-11.966-11.965-31.434-11.964-43.397,0L263.362,88.08l-4.18-4.18 c-5.797-5.797-13.504-8.989-21.702-8.989c-8.199,0-15.904,3.193-21.693,8.988l-23.004,22.995L163.837,5.085 c-0.614-2.158-2.225-3.891-4.332-4.661c-2.107-0.769-4.455-0.482-6.316,0.772L69.507,57.648c-3.205,2.162-4.05,6.513-1.889,9.718 c2.163,3.206,6.513,4.05,9.718,1.889l75.675-51.051l25.375,89.25h-23.634c-3.866,0-7,3.134-7,7s3.134,7,7,7h2.462l16.866,331.838 c0.189,3.723,3.263,6.645,6.991,6.645h179.123c3.728,0,6.802-2.921,6.991-6.645l16.865-331.838h2.463c3.866,0,7-3.134,7-7 S390.38,107.453,386.514,107.453z M284.718,86.523c6.505-6.505,17.092-6.506,23.597,0l20.929,20.93h-65.456L284.718,86.523z M225.688,93.797c3.148-3.151,7.335-4.886,11.792-4.886c4.458,0,8.649,1.736,11.802,4.889l4.18,4.18l-9.473,9.473h-31.963 L225.688,93.797z M182.402,341.194h176.463l-0.249,4.906H182.651L182.402,341.194z M359.577,327.194H181.691l-4.197-82.581h186.28 L359.577,327.194z M176.782,230.613l-0.249-4.907h188.202l-0.249,4.907H176.782z M187.726,445.936l-4.363-85.835h174.541 l-4.362,85.835H187.726z M365.446,211.707H175.821l-4.587-90.253h198.799L365.446,211.707z"/> </g>
</svg>