<!DOCTYPE svg PUBLIC "-//W3C//DTD SVG 1.1//EN" "http://www.w3.org/Graphics/SVG/1.1/DTD/svg11.dtd">
<!-- Uploaded to: SVG Repo, www.svgrepo.com, Transformed by: SVG Repo Mixer Tools -->
<svg fill="#006168" height="800px" width="800px" version="1.1" id="Capa_1" xmlns="http://www.w3.org/2000/svg" xmlns:xlink="http://www.w3.org/1999/xlink" viewBox="0 0 449.135 449.135" xml:space="preserve">
<g id="SVGRepo_bgCarrier" stroke-width="0"/>
<g id="SVGRepo_tracerCarrier" stroke-linecap="round" stroke-linejoin="round"/>
<g id="SVGRepo_iconCarrier"> <path d="M445.166,119.622c-2.76-2.71-7.19-2.668-9.899,0.089l-74.844,76.205c-5.413-47.447-45.889-84.485-94.699-84.485 c-32.512,0-62.157,16.225-79.676,42.967L158.077,5.709c-0.714-3.799-4.377-6.307-8.173-5.585c-3.8,0.714-6.3,4.374-5.585,8.173 l26.582,141.301c-0.998-0.339-2.006-0.65-3.022-0.937l-67.422-134.3c-1.733-3.453-5.938-4.852-9.396-3.115 c-3.455,1.734-4.85,5.941-3.115,9.396l63.112,125.713c-16.036,0.043-31.159,6.252-42.6,17.501 c-9.518,9.358-15.583,21.323-17.54,34.305l-77.049-78.45c-2.709-2.759-7.141-2.799-9.899-0.089 c-2.758,2.709-2.798,7.141-0.089,9.899l78.765,80.198l40.74,233.618c0.584,3.352,3.493,5.798,6.896,5.798h188.573 c3.402,0,6.312-2.446,6.896-5.798l40.74-233.618l78.765-80.198C447.964,126.762,447.924,122.331,445.166,119.622z M265.724,125.43 c42.275,0,77.207,32.573,80.964,73.938h-13.436c-3.708-33.965-32.655-60.547-67.528-60.547c-26.919,0-50.3,15.837-61.278,38.678 c-2.419-4.295-5.375-8.314-8.831-11.974C210.208,140.671,236.62,125.43,265.724,125.43z M279.847,199.368 c-2.619-5.17-7.976-8.741-14.126-8.741c-6.152,0-11.51,3.571-14.129,8.741h-12.91c3.268-11.87,14.196-20.647,27.043-20.647 c12.842,0,23.765,8.778,27.033,20.647H279.847z M307.09,199.368c-3.525-19.637-20.803-34.647-41.366-34.647 c-20.568,0-37.851,15.011-41.376,34.647h-12.042c3.628-26.231,26.251-46.547,53.418-46.547c27.162,0,49.78,20.315,53.407,46.547 H307.09z M151.224,160.351c23.037,0,42.491,16.945,46.329,39.017h-11.317c-3.602-16.096-17.863-27.907-35.012-27.907 s-31.41,11.811-35.012,27.907h-11.307C108.742,177.297,128.193,160.351,151.224,160.351z M171.616,199.368h-40.784 c3.172-8.183,11.073-13.907,20.392-13.907S168.444,191.185,171.616,199.368z M312.969,435.135H136.165L97.492,213.368h254.151 L312.969,435.135z"/> </g>
</svg>